<?xml version="1.0" encoding="UTF-8"?>
<svg width="220px" height="24px" viewBox="0 0 220 24" version="1.1" xmlns="http://www.w3.org/2000/svg" xmlns:xlink="http://www.w3.org/1999/xlink">
    <title>logo</title>
    <g id="Page-1" stroke="none" stroke-width="1" fill="none" fill-rule="evenodd">
        <g id="logo" fill="#000000" fill-rule="nonzero">
            <path d="M3.223,23.04 L3.223,8.361 C3.223,7.68424 3.209572,6.9403 3.182717,6.1293 C3.155862,5.31826 3.126321,4.4347 3.094094,3.4787 L4.624894,8.506 L9.942294,23.04 L12.520394,23.04 L17.789394,8.506 C17.993494,7.95815 18.219084,7.2626 18.466154,6.4193 C18.713224,5.57604 18.992524,4.5958 19.304044,3.4786 C19.250333,4.3702 19.21005,5.2403 19.183194,6.089 C19.156339,6.93763 19.142911,7.695 19.142911,8.361 L19.142911,23.04 L22.397811,23.04 L22.397811,0.336 L17.660511,0.336 L12.310911,15.273 C12.235716,15.50933 12.128291,15.85308 11.988641,16.3043 C11.848991,16.75547 11.712031,17.21739 11.577751,17.69 C11.443471,18.16266 11.333371,18.56549 11.247431,18.8985 C11.140011,18.44733 10.989621,17.8592 10.796261,17.1341 C10.602901,16.409 10.404171,15.7188 10.200071,15.0635 L4.818271,0.3355 L0.000371,0.3355 L0.000371,23.0395 L3.223071,23.0395 L3.223,23.04 Z M28.972,23.04 L31.389,16.6753 L41.1698,16.6753 L43.5707,23.04 L47.2284,23.04 L38.3983,0.336 L34.1927,0.336 L25.2659,23.04 L28.972,23.04 Z M40.203,13.8877 L32.3558,13.8877 L35.0789,6.6206 C35.25078,6.16943 35.45219,5.5974 35.68315,4.9045 C35.91411,4.2116 36.11015,3.5913 36.27129,3.0434 C36.48613,3.74164 36.69561,4.3942 36.89971,5.0012 C37.10381,5.6082 37.28106,6.1103 37.43145,6.5078 L40.203,13.8877 L40.203,13.8877 Z M65.453,23.04 L65.453,20.1396 L53.739,20.1396 L53.739,0.3366 L50.1135,0.3366 L50.1135,23.0406 L65.4535,23.0406 L65.453,23.04 Z M72.285,23.04 L72.285,8.361 C72.285,7.68424 72.271572,6.9403 72.244716,6.1293 C72.217861,5.31826 72.18832,4.4347 72.156093,3.4787 L73.686893,8.506 L79.004293,23.04 L81.582393,23.04 L86.851393,8.506 C87.055493,7.95815 87.281083,7.2626 87.528153,6.4193 C87.775223,5.57604 88.054523,4.5958 88.366043,3.4786 C88.312332,4.3702 88.272049,5.2403 88.245193,6.089 C88.218337,6.93763 88.20491,7.695 88.20491,8.361 L88.20491,23.04 L91.45981,23.04 L91.45981,0.336 L86.72251,0.336 L81.37291,15.273 C81.297715,15.50933 81.19029,15.85308 81.05065,16.3043 C80.911,16.75547 80.77404,17.21739 80.63976,17.69 C80.50548,18.16261 80.39538,18.56549 80.30944,18.8985 C80.20202,18.44733 80.05163,17.8592 79.85827,17.1341 C79.66491,16.409 79.46618,15.7188 79.26208,15.0635 L73.88028,0.3355 L69.06238,0.3355 L69.06238,23.0395 L72.28508,23.0395 L72.285,23.04 Z M106.8,23.36227 C109.1203,23.36227 111.1291,22.88156 112.8264,21.92017 C114.5237,20.95874 115.8369,19.59717 116.7661,17.83547 C117.6953,16.07377 118.1599,13.98977 118.1599,11.58347 C118.1599,9.14497 117.70604,7.06367 116.7983,5.33957 C115.89056,3.61547 114.5908,2.29417 112.8989,1.37567 C111.207,0.45721 109.1848,-0.00203 106.8323,-0.00203 C104.4583,-0.00203 102.4253,0.45988 100.7334,1.38367 C99.0415,2.3075 97.7471,3.63147 96.8501,5.35557 C95.9531,7.07967 95.5046,9.15557 95.5046,11.58337 C95.5046,14.02187 95.95846,16.12197 96.8662,17.88367 C97.77394,19.64537 99.0737,20.99887 100.7656,21.94417 C102.4575,22.88948 104.469,23.36227 106.8,23.36227 L106.8,23.36227 Z M106.8,20.44587 C105.2209,20.44587 103.8593,20.08591 102.7153,19.36617 C101.5713,18.64644 100.6958,17.62327 100.0888,16.29657 C99.48187,14.96987 99.1784,13.39887 99.1784,11.58347 C99.1784,8.84417 99.84442,6.71457 101.1764,5.19457 C102.50838,3.67457 104.3937,2.91457 106.8322,2.91457 C109.2492,2.91457 111.1237,3.68532 112.4557,5.22687 C113.7877,6.76842 114.4537,8.88727 114.4537,11.58357 C114.4537,14.40877 113.79306,16.59207 112.4718,18.13357 C111.15054,19.67507 109.2599,20.44587 106.7999,20.44587 L106.8,20.44587 Z M131.405,23.36227 C133.4138,23.36227 135.146,23.00509 136.6015,22.29077 C138.0571,21.57641 139.1769,20.55327 139.9611,19.22117 C140.74528,17.88917 141.1374,16.29397 141.1374,14.43557 L141.1374,0.33657 L137.5119,0.33657 L137.5119,14.21057 C137.5119,16.24087 136.98285,17.79037 135.9247,18.85927 C134.8666,19.92807 133.3707,20.46257 131.4372,20.46257 C129.5681,20.46257 128.1393,19.94963 127.1511,18.92377 C126.16282,17.89787 125.6687,16.39127 125.6687,14.40397 L125.6687,0.33697 L122.0271,0.33697 L122.0271,14.70997 C122.0271,16.52537 122.40576,18.07767 123.1631,19.36667 C123.92042,20.65577 125,21.64397 126.4019,22.33147 C127.8038,23.01897 129.4715,23.36267 131.4051,23.36267 L131.405,23.36227 Z M156.268,23.36247 C158.5668,23.36247 160.5676,22.84396 162.2702,21.80737 C163.9728,20.77078 165.2807,19.23727 166.1938,17.20707 L163.1484,15.83747 C161.7089,18.89897 159.4477,20.42977 156.3647,20.42977 C154.7856,20.42977 153.4267,20.06991 152.288,19.35017 C151.1493,18.63044 150.2765,17.60997 149.6696,16.28867 C149.06267,14.96737 148.7592,13.39907 148.7592,11.58357 C148.7592,8.85507 149.4091,6.72807 150.7089,5.20267 C152.0087,3.67727 153.8564,2.91457 156.2519,2.91457 C157.788,2.91457 159.1174,3.26101 160.2399,3.95387 C161.3625,4.64674 162.1547,5.62157 162.6166,6.87847 L165.9682,5.84727 C165.22699,3.92437 164.0373,2.46887 162.3991,1.48057 C160.7609,0.49229 158.6904,-0.00183 156.1874,-0.00183 C153.8456,-0.00183 151.8449,0.45471 150.1852,1.36777 C148.5255,2.28083 147.258,3.60217 146.3825,5.33167 C145.50701,7.06117 145.0693,9.14517 145.0693,11.58367 C145.0693,14.01137 145.5151,16.10877 146.4067,17.87587 C147.2983,19.64297 148.5793,20.99917 150.2497,21.94447 C151.9201,22.88978 153.9262,23.36247 156.268,23.36247 L156.268,23.36247 Z M173.509,23.04 L173.509,12.776 L184.998,12.776 L184.998,23.04 L188.6396,23.04 L188.6396,0.336 L184.998,0.336 L184.998,9.7462 L173.509,9.7462 L173.509,0.336 L169.8835,0.336 L169.8835,23.04 L173.509,23.04 Z M211.81,23.04 L211.81,20.1396 L197.34,20.1396 L197.34,12.8725 L210.166,12.8725 L210.166,9.9882 L197.34,9.9882 L197.34,3.2367 L211.149,3.2367 L211.149,0.3363 L193.714,0.3363 L193.714,23.0403 L211.809,23.0403 L211.81,23.04 Z M219.5766,23.04 L219.5766,19.0439 L215.935,19.0439 L215.935,23.04 L219.5766,23.04 Z" id="Shape"></path>
        </g>
    </g>
</svg>