<?xml version="1.0" standalone="no"?>
<!DOCTYPE svg PUBLIC "-//W3C//DTD SVG 20010904//EN"
 "http://www.w3.org/TR/2001/REC-SVG-20010904/DTD/svg10.dtd">
<svg version="1.0" xmlns="http://www.w3.org/2000/svg"
 width="588.000000pt" height="588.000000pt" viewBox="0 0 588.000000 588.000000"
 preserveAspectRatio="xMidYMid meet">
<metadata>
Created by potrace 1.11, written by Peter Selinger 2001-2013
</metadata>
<g transform="translate(0.000000,588.000000) scale(0.100000,-0.100000)"
fill="#000000" stroke="none">
<path d="M1140 4130 c-93 -32 -139 -110 -125 -215 13 -103 89 -168 197 -168
108 0 184 68 195 175 11 107 -51 198 -146 214 -20 3 -43 7 -51 9 -8 3 -40 -4
-70 -15z"/>
<path d="M1678 4140 c0 -3 -2 -393 -3 -867 l-1 -863 189 0 190 0 -7 353 c-3
193 -8 375 -10 402 -2 28 -7 127 -11 220 -4 94 -8 196 -10 228 -1 31 -1 57 1
57 1 0 10 -24 19 -52 10 -29 35 -100 55 -158 44 -122 232 -651 316 -887 l57
-163 128 0 c71 0 129 1 129 3 0 1 23 66 51 142 28 77 52 145 54 150 1 6 5 17
8 25 3 8 76 211 161 450 85 239 159 446 165 460 10 25 9 -55 -4 -335 -3 -55
-8 -165 -12 -245 -3 -80 -7 -257 -7 -395 l-1 -250 188 -3 187 -2 -2 867 -3
867 -242 0 c-207 1 -243 -1 -247 -14 -2 -8 -25 -73 -50 -145 -24 -71 -79 -229
-121 -350 -42 -121 -99 -285 -127 -365 -107 -309 -126 -365 -127 -360 -1 3
-24 71 -52 150 -28 80 -59 170 -69 200 -10 30 -48 141 -85 245 -72 206 -134
385 -185 535 -18 52 -34 97 -36 99 -5 6 -484 7 -486 1z"/>
<path d="M4146 3704 c-190 -42 -349 -191 -411 -387 -30 -94 -36 -134 -40 -258
-6 -215 47 -361 178 -493 82 -82 186 -140 289 -162 91 -19 179 -22 283 -9 28
3 52 5 55 5 3 0 30 8 60 18 106 37 197 99 264 179 19 23 19 23 -49 100 -116
132 -98 122 -144 80 -107 -96 -277 -127 -406 -73 -71 30 -141 118 -159 201
l-7 31 403 -1 403 0 0 140 c0 155 -5 194 -33 275 -66 189 -195 313 -368 353
-80 19 -234 19 -318 1z m284 -307 c49 -33 79 -90 86 -162 4 -48 2 -55 -13 -56
-10 0 -113 -1 -230 -2 l-212 -2 5 25 c26 115 70 181 144 215 55 25 169 15 220
-18z"/>
<path d="M1030 3005 l0 -605 180 0 180 0 0 45 c0 25 0 263 0 530 0 267 0 519
0 560 l0 75 -180 0 -180 0 0 -605z"/>
</g>
</svg>
