<svg xmlns="http://www.w3.org/2000/svg" width="119" height="14" viewBox="0 0 119 14">
  <path fill="#4F4A4D" d="M2.26079888,12.9423005 L2.26079888,5.07866646 C2.26079888,4.7161279 2.25360565,4.31762321 2.2392192,3.88315239 C2.22483275,3.44868158 2.20900766,2.97536734 2.19174392,2.46320969 L2.19174392,2.46320969 L3.01177161,5.15635329 L5.86028888,12.9423005 L7.24138816,12.9423005 L10.0640098,5.15635329 C10.1733468,4.86286969 10.294193,4.49026062 10.4265484,4.03852606 C10.5589037,3.5867915 10.7085228,3.06168605 10.8754056,2.46320969 C10.8466327,2.94083986 10.8250531,3.40696087 10.8106666,3.86157272 C10.7962802,4.31618456 10.7890869,4.72188248 10.7890869,5.07866646 L10.7890869,5.07866646 L10.7890869,12.9423005 L12.5327248,12.9423005 L12.5327248,0.779994944 L9.99495485,0.779994944 L7.12917385,8.7817389 C7.08889178,8.90833967 7.03134598,9.09248624 6.95653644,9.33417862 C6.88172689,9.57587099 6.80835599,9.82331794 6.73642374,10.0765195 C6.66449148,10.329721 6.60550703,10.5455178 6.55947039,10.7239098 C6.50192459,10.4822174 6.42136046,10.1671541 6.31777802,9.77871995 C6.21419557,9.39028577 6.10773584,9.02055399 5.99839881,8.66952459 L5.99839881,8.66952459 L3.11535406,0.779994944 L0.534424779,0.779994944 L0.534424779,12.9423005 L2.26079888,12.9423005 Z M16.0545279,12.9423005 L17.3493085,9.53271164 L22.5888539,9.53271164 L23.8750026,12.9423005 L25.8344372,12.9423005 L21.1041722,0.779994944 L18.851254,0.779994944 L14.0691977,12.9423005 L16.0545279,12.9423005 Z M22.0709417,8.03939804 L17.8672208,8.03939804 L19.3260069,4.14642444 C19.4180802,3.90473207 19.5259785,3.59830066 19.649702,3.22713023 C19.7734255,2.8559598 19.8784466,2.52363279 19.9647653,2.23014919 C20.0798569,2.60419691 20.1920712,2.95378767 20.3014082,3.27892146 C20.4107453,3.60405524 20.5056958,3.87308188 20.58626,4.08600135 L20.58626,4.08600135 L22.0709417,8.03939804 Z M35.5970828,12.9423005 L35.5970828,11.3885638 L29.3217129,11.3885638 L29.3217129,0.779994944 L27.3795421,0.779994944 L27.3795421,12.9423005 L35.5970828,12.9423005 Z M39.2569959,12.9423005 L39.2569959,5.07866646 C39.2569959,4.7161279 39.2498026,4.31762321 39.2354162,3.88315239 C39.2210297,3.44868158 39.2052046,2.97536734 39.1879409,2.46320969 L39.1879409,2.46320969 L40.0079686,5.15635329 L42.8564859,12.9423005 L44.2375852,12.9423005 L47.0602068,5.15635329 C47.1695438,4.86286969 47.29039,4.49026062 47.4227454,4.03852606 C47.5551007,3.5867915 47.7047198,3.06168605 47.8716026,2.46320969 C47.8428297,2.94083986 47.8212501,3.40696087 47.8068636,3.86157272 C47.7924772,4.31618456 47.7852839,4.72188248 47.7852839,5.07866646 L47.7852839,5.07866646 L47.7852839,12.9423005 L49.5289218,12.9423005 L49.5289218,0.779994944 L46.9911518,0.779994944 L44.1253708,8.7817389 C44.0850888,8.90833967 44.027543,9.09248624 43.9527334,9.33417862 C43.8779239,9.57587099 43.804553,9.82331794 43.7326207,10.0765195 C43.6606885,10.329721 43.601704,10.5455178 43.5556674,10.7239098 C43.4981216,10.4822174 43.4175575,10.1671541 43.313975,9.77871995 C43.2103926,9.39028577 43.1039328,9.02055399 42.9945958,8.66952459 L42.9945958,8.66952459 L40.111551,0.779994944 L37.5306218,0.779994944 L37.5306218,12.9423005 L39.2569959,12.9423005 Z M57.7464625,13.1149379 C58.9894518,13.1149379 60.0655584,12.8574204 60.9747821,12.3423855 C61.8840058,11.8273505 62.5875032,11.0979575 63.0852744,10.1542063 C63.5830456,9.21045514 63.8319312,8.09406655 63.8319312,6.80504056 C63.8319312,5.49875082 63.5888002,4.38380088 63.1025381,3.46019074 C62.6162761,2.53658059 61.9199719,1.82876721 61.0136255,1.33675059 C60.1072791,0.844733973 59.0239793,0.598725664 57.7637262,0.598725664 C56.491964,0.598725664 55.4029097,0.846172618 54.4965632,1.34106653 C53.5902168,1.83596044 52.8967899,2.54521246 52.4162825,3.46882261 C51.935775,4.39243275 51.6955213,5.5045054 51.6955213,6.80504056 C51.6955213,8.11133029 51.9386523,9.23635075 52.4249143,10.1801019 C52.9111764,11.1238531 53.6074806,11.8489302 54.513827,12.3553333 C55.4201734,12.8617364 56.4977186,13.1149379 57.7464625,13.1149379 Z M57.7464625,11.5525693 C56.9005392,11.5525693 56.1711461,11.3597909 55.5582833,10.974234 C54.9454205,10.5886771 54.4764222,10.0405534 54.1512884,9.32986268 C53.8261546,8.61917201 53.6635877,7.77756463 53.6635877,6.80504056 C53.6635877,5.33762257 54.0203717,4.19677702 54.7339397,3.3825039 C55.4475076,2.56823078 56.4574365,2.16109423 57.7637262,2.16109423 C59.0585068,2.16109423 60.0626811,2.57398536 60.776249,3.39976764 C61.489817,4.22554992 61.846601,5.36064089 61.846601,6.80504056 C61.846601,8.31849519 61.4926943,9.48811364 60.7848809,10.3138959 C60.0770675,11.1396782 59.0642614,11.5525693 57.7464625,11.5525693 Z M70.9273288,13.1149379 C72.0034353,13.1149379 72.9313614,12.9235981 73.711107,12.5409185 C74.4908526,12.1582389 75.0907676,11.6101151 75.510852,10.8965472 C75.9309364,10.1829792 76.1409785,9.32842404 76.1409785,8.33288164 L76.1409785,8.33288164 L76.1409785,0.779994944 L74.1988077,0.779994944 L74.1988077,8.21203545 C74.1988077,9.29965113 73.9153946,10.1297493 73.3485684,10.7023301 C72.7817423,11.2749108 71.980417,11.5612012 70.9445925,11.5612012 C69.9432955,11.5612012 69.1779363,11.28642 68.6485149,10.7368576 C68.1190936,10.1872952 67.8543829,9.38021526 67.8543829,8.3156179 L67.8543829,8.3156179 L67.8543829,0.779994944 L65.9035801,0.779994944 L65.9035801,8.47962344 C65.9035801,9.45214751 66.1064291,10.2836844 66.512127,10.974234 C66.9178249,11.6647837 67.4961602,12.194205 68.247133,12.5624982 C68.9981057,12.9307913 69.8915043,13.1149379 70.9273288,13.1149379 Z M84.2463049,13.1149379 C85.4777851,13.1149379 86.5495757,12.8372794 87.4616767,12.2819624 C88.3737777,11.7266454 89.0743978,10.905179 89.5635372,9.81756336 L89.5635372,9.81756336 L87.9321137,9.08385437 C87.1609999,10.7239098 85.9496607,11.5439375 84.2980962,11.5439375 C83.4521729,11.5439375 82.7242184,11.351159 82.1142329,10.9656021 C81.5042474,10.5800453 81.0366878,10.0333601 80.711554,9.32554675 C80.3864202,8.61773336 80.2238533,7.77756463 80.2238533,6.80504056 C80.2238533,5.34337715 80.5720054,4.20397025 81.2683096,3.38681984 C81.9646138,2.56966943 82.9544017,2.16109423 84.2376731,2.16109423 C85.0605781,2.16109423 85.7727074,2.34667944 86.374061,2.71784987 C86.9754147,3.0890203 87.399815,3.61124847 87.6472619,4.28453437 L87.6472619,4.28453437 L89.442691,3.73209466 C89.0456249,2.70202478 88.4083052,1.92227914 87.5307317,1.39285775 C86.6531582,0.863436359 85.5439628,0.598725664 84.2031456,0.598725664 C82.9486471,0.598725664 81.8768565,0.843295328 80.9877738,1.33243466 C80.0986912,1.82157399 79.4196507,2.52938737 78.9506524,3.4558748 C78.4816541,4.38236224 78.2471549,5.49875082 78.2471549,6.80504056 C78.2471549,8.10557571 78.48597,9.22915752 78.9636002,10.175786 C79.4412304,11.1224145 80.1274641,11.8489302 81.0223013,12.3553333 C81.9171386,12.8617364 82.9918064,13.1149379 84.2463049,13.1149379 Z M93.4824064,12.9423005 L93.4824064,7.44379898 L99.6369301,7.44379898 L99.6369301,12.9423005 L101.587733,12.9423005 L101.587733,0.779994944 L99.6369301,0.779994944 L99.6369301,5.82100732 L93.4824064,5.82100732 L93.4824064,0.779994944 L91.5402355,0.779994944 L91.5402355,12.9423005 L93.4824064,12.9423005 Z M114.000363,12.9423005 L114.000363,11.3885638 L106.248943,11.3885638 L106.248943,7.4955902 L113.119912,7.4955902 L113.119912,5.95048538 L106.248943,5.95048538 L106.248943,2.33373164 L113.646456,2.33373164 L113.646456,0.779994944 L104.306772,0.779994944 L104.306772,12.9423005 L114.000363,12.9423005 Z M118.160924,12.9423005 L118.160924,10.8015966 L116.210121,10.8015966 L116.210121,12.9423005 L118.160924,12.9423005 Z"/>
</svg>
