<svg xmlns="http://www.w3.org/2000/svg" width="389" height="191" viewBox="0 0 389 191">
  <g fill="none" fill-rule="evenodd">
    <rect width="389" height="191" fill="#FFF"/>
    <path fill="#000" fill-rule="nonzero" d="M88.2226562,107.041992 L88.2226562,92.362793 C88.2226562,91.6860352 88.2092285,90.9421387 88.182373,90.1311035 C88.1555176,89.3200684 88.1259766,88.4365234 88.09375,87.4804688 L88.09375,87.4804688 L89.6245117,92.5078125 L94.9418945,107.041992 L97.5200195,107.041992 L102.789062,92.5078125 C102.993164,91.9599609 103.21875,91.2644043 103.46582,90.4211426 C103.712891,89.5778809 103.992188,88.5976562 104.303711,87.4804688 C104.25,88.3720703 104.209717,89.2421875 104.182861,90.0908203 C104.156006,90.9394531 104.142578,91.6967773 104.142578,92.362793 L104.142578,92.362793 L104.142578,107.041992 L107.397461,107.041992 L107.397461,84.3383789 L102.660156,84.3383789 L97.3105469,99.2753906 C97.2353516,99.5117188 97.1279297,99.8554688 96.9882812,100.306641 C96.8486328,100.757812 96.7116699,101.219727 96.5773926,101.692383 C96.4431152,102.165039 96.3330078,102.567871 96.2470703,102.900879 C96.1396484,102.449707 95.9892578,101.861572 95.7958984,101.136475 C95.6025391,100.411377 95.4038086,99.7211914 95.199707,99.065918 L95.199707,99.065918 L89.8178711,84.3383789 L85,84.3383789 L85,107.041992 L88.2226562,107.041992 Z M113.97168,107.041992 L116.388672,100.677246 L126.169434,100.677246 L128.570312,107.041992 L132.228027,107.041992 L123.397949,84.3383789 L119.192383,84.3383789 L110.265625,107.041992 L113.97168,107.041992 Z M125.202637,97.8896484 L117.355469,97.8896484 L120.078613,90.6225586 C120.250488,90.1713867 120.451904,89.5993652 120.682861,88.9064941 C120.913818,88.213623 121.109863,87.5932617 121.270996,87.0454102 C121.48584,87.7436523 121.695312,88.3962402 121.899414,89.0031738 C122.103516,89.6101074 122.280762,90.1123047 122.431152,90.5097656 L122.431152,90.5097656 L125.202637,97.8896484 Z M150.452148,107.041992 L150.452148,104.141602 L138.737793,104.141602 L138.737793,84.3383789 L135.112305,84.3383789 L135.112305,107.041992 L150.452148,107.041992 Z M157.28418,107.041992 L157.28418,92.362793 C157.28418,91.6860352 157.270752,90.9421387 157.243896,90.1311035 C157.217041,89.3200684 157.1875,88.4365234 157.155273,87.4804688 L157.155273,87.4804688 L158.686035,92.5078125 L164.003418,107.041992 L166.581543,107.041992 L171.850586,92.5078125 C172.054688,91.9599609 172.280273,91.2644043 172.527344,90.4211426 C172.774414,89.5778809 173.053711,88.5976562 173.365234,87.4804688 C173.311523,88.3720703 173.27124,89.2421875 173.244385,90.0908203 C173.217529,90.9394531 173.204102,91.6967773 173.204102,92.362793 L173.204102,92.362793 L173.204102,107.041992 L176.458984,107.041992 L176.458984,84.3383789 L171.72168,84.3383789 L166.37207,99.2753906 C166.296875,99.5117188 166.189453,99.8554688 166.049805,100.306641 C165.910156,100.757812 165.773193,101.219727 165.638916,101.692383 C165.504639,102.165039 165.394531,102.567871 165.308594,102.900879 C165.201172,102.449707 165.050781,101.861572 164.857422,101.136475 C164.664062,100.411377 164.465332,99.7211914 164.26123,99.065918 L164.26123,99.065918 L158.879395,84.3383789 L154.061523,84.3383789 L154.061523,107.041992 L157.28418,107.041992 Z M191.798828,107.364258 C194.119141,107.364258 196.12793,106.883545 197.825195,105.922119 C199.522461,104.960693 200.835693,103.599121 201.764893,101.837402 C202.694092,100.075684 203.158691,97.9916992 203.158691,95.5854492 C203.158691,93.1469727 202.704834,91.0656738 201.797119,89.3415527 C200.889404,87.6174316 199.5896,86.2961426 197.897705,85.3776855 C196.205811,84.4592285 194.183594,84 191.831055,84 C189.457031,84 187.424072,84.4619141 185.732178,85.3857422 C184.040283,86.3095703 182.74585,87.6335449 181.848877,89.357666 C180.951904,91.0817871 180.503418,93.1577148 180.503418,95.5854492 C180.503418,98.0239258 180.957275,100.124023 181.86499,101.885742 C182.772705,103.647461 184.07251,105.000977 185.764404,105.946289 C187.456299,106.891602 189.467773,107.364258 191.798828,107.364258 Z M191.798828,104.447754 C190.219727,104.447754 188.858154,104.087891 187.714111,103.368164 C186.570068,102.648438 185.69458,101.625244 185.087646,100.298584 C184.480713,98.9719238 184.177246,97.4008789 184.177246,95.5854492 C184.177246,92.8461914 184.843262,90.7165527 186.175293,89.1965332 C187.507324,87.6765137 189.392578,86.9165039 191.831055,86.9165039 C194.248047,86.9165039 196.122559,87.6872559 197.45459,89.2287598 C198.786621,90.7702637 199.452637,92.8891602 199.452637,95.5854492 C199.452637,98.4106445 198.791992,100.593994 197.470703,102.135498 C196.149414,103.677002 194.258789,104.447754 191.798828,104.447754 Z M216.403809,107.364258 C218.412598,107.364258 220.144775,107.00708 221.600342,106.292725 C223.055908,105.578369 224.175781,104.555176 224.959961,103.223145 C225.744141,101.891113 226.13623,100.295898 226.13623,98.4375 L226.13623,98.4375 L226.13623,84.3383789 L222.510742,84.3383789 L222.510742,98.2119141 C222.510742,100.242188 221.981689,101.791748 220.923584,102.860596 C219.865479,103.929443 218.369629,104.463867 216.436035,104.463867 C214.566895,104.463867 213.138184,103.950928 212.149902,102.925049 C211.161621,101.89917 210.66748,100.392578 210.66748,98.4052734 L210.66748,98.4052734 L210.66748,84.3383789 L207.025879,84.3383789 L207.025879,98.7114258 C207.025879,100.526855 207.404541,102.079102 208.161865,103.368164 C208.919189,104.657227 209.998779,105.645508 211.400635,106.333008 C212.80249,107.020508 214.470215,107.364258 216.403809,107.364258 Z M241.266602,107.364258 C243.56543,107.364258 245.566162,106.845947 247.268799,105.809326 C248.971436,104.772705 250.279297,103.239258 251.192383,101.208984 L251.192383,101.208984 L248.146973,99.8393555 C246.70752,102.900879 244.446289,104.431641 241.363281,104.431641 C239.78418,104.431641 238.425293,104.071777 237.286621,103.352051 C236.147949,102.632324 235.275146,101.611816 234.668213,100.290527 C234.061279,98.9692383 233.757812,97.4008789 233.757812,95.5854492 C233.757812,92.8569336 234.407715,90.7299805 235.70752,89.2045898 C237.007324,87.6791992 238.85498,86.9165039 241.250488,86.9165039 C242.786621,86.9165039 244.115967,87.2629395 245.238525,87.9558105 C246.361084,88.6486816 247.15332,89.6235352 247.615234,90.8803711 L247.615234,90.8803711 L250.966797,89.8491211 C250.225586,87.9262695 249.035889,86.4707031 247.397705,85.4824219 C245.759521,84.4941406 243.688965,84 241.186035,84 C238.844238,84 236.843506,84.456543 235.183838,85.3696289 C233.52417,86.2827148 232.256592,87.6040039 231.381104,89.3334961 C230.505615,91.0629883 230.067871,93.1469727 230.067871,95.5854492 C230.067871,98.0131836 230.513672,100.110596 231.405273,101.877686 C232.296875,103.644775 233.577881,105.000977 235.248291,105.946289 C236.918701,106.891602 238.924805,107.364258 241.266602,107.364258 Z M258.507812,107.041992 L258.507812,96.777832 L269.996582,96.777832 L269.996582,107.041992 L273.638184,107.041992 L273.638184,84.3383789 L269.996582,84.3383789 L269.996582,93.7485352 L258.507812,93.7485352 L258.507812,84.3383789 L254.882324,84.3383789 L254.882324,107.041992 L258.507812,107.041992 Z M296.809082,107.041992 L296.809082,104.141602 L282.339355,104.141602 L282.339355,96.8745117 L295.165527,96.8745117 L295.165527,93.9902344 L282.339355,93.9902344 L282.339355,87.2387695 L296.148438,87.2387695 L296.148438,84.3383789 L278.713867,84.3383789 L278.713867,107.041992 L296.809082,107.041992 Z M304.575684,107.041992 L304.575684,103.045898 L300.934082,103.045898 L300.934082,107.041992 L304.575684,107.041992 Z"/>
  </g>
</svg>
