<svg viewBox="0 0 389 191" xmlns="http://www.w3.org/2000/svg"><path d="m88.223 107.04v-14.679c0-.67676-.013428-1.4207-.040283-2.2317-.026855-.81104-.056396-1.6946-.088623-2.6506l1.5308 5.0273 5.3174 14.534h2.5781l5.269-14.534c.2041-.54785.42969-1.2434.67676-2.0867.24707-.84326.52637-1.8235.83789-2.9407-.053711.8916-.093994 1.7617-.12085 2.6104-.026855.84863-.040283 1.606-.040283 2.272v14.679h3.2549v-22.704h-4.7373l-5.3496 14.937c-.075195.23633-.18262.58008-.32227 1.0313-.13965.45117-.27661.91309-.41089 1.3857-.13428.47266-.24438.87549-.33032 1.2085-.10742-.45117-.25781-1.0393-.45117-1.7644s-.39209-1.4153-.59619-2.0706l-5.3818-14.728h-4.8179v22.704h3.2227zm25.749 0 2.417-6.3647h9.7808l2.4009 6.3647h3.6577l-8.8301-22.704h-4.2056l-8.9268 22.704zm11.231-9.1523h-7.8472l2.7231-7.2671c.17188-.45117.37329-1.0232.60425-1.7161s.427-1.3132.58814-1.8611c.21484.69824.42432 1.3508.62842 1.9578s.38135 1.1091.53174 1.5066l2.7715 7.3799zm25.25 9.1523v-2.9004h-11.714v-19.803h-3.6255v22.704h15.34zm6.832 0v-14.679c0-.67676-.013428-1.4207-.040284-2.2317-.026855-.81104-.056396-1.6946-.088623-2.6506l1.5308 5.0273 5.3174 14.534h2.5781l5.269-14.534c.2041-.54785.42969-1.2434.67676-2.0867.24707-.84326.52637-1.8235.83789-2.9407-.053711.8916-.093994 1.7617-.12085 2.6104-.026856.84863-.040283 1.606-.040283 2.272v14.679h3.2549v-22.704h-4.7373l-5.3496 14.937c-.075195.23633-.18262.58008-.32226 1.0313-.13965.45117-.27661.91309-.41089 1.3857s-.24438.87549-.33032 1.2085c-.10742-.45117-.25781-1.0393-.45117-1.7644s-.39209-1.4153-.59619-2.0706l-5.3818-14.728h-4.8179v22.704h3.2227zm34.515.32227c2.3203 0 4.3291-.48071 6.0264-1.4421 1.6973-.96143 3.0105-2.323 3.9397-4.0847s1.3938-3.8457 1.3938-6.252c0-2.4385-.45386-4.5198-1.3616-6.2439s-2.2075-3.0454-3.8994-3.9639c-1.6919-.91846-3.7141-1.3777-6.0666-1.3777-2.374 0-4.407.46191-6.0989 1.3857-1.6919.92383-2.9863 2.2478-3.8833 3.9719s-1.3455 3.8-1.3455 6.2278c0 2.4385.45386 4.5386 1.3616 6.3003s2.2075 3.1152 3.8994 4.0605c1.6919.94531 3.7034 1.418 6.0344 1.418zm0-2.9165c-1.5791 0-2.9407-.35986-4.0847-1.0796-1.144-.71973-2.0195-1.7429-2.6265-3.0696-.60693-1.3267-.9104-2.8977-.9104-4.7131 0-2.7393.66602-4.8689 1.998-6.3889s3.2173-2.28 5.6558-2.28c2.417 0 4.2915.77075 5.6235 2.3123s1.998 3.6604 1.998 6.3567c0 2.8252-.66064 5.0085-1.9819 6.55s-3.2119 2.3123-5.6719 2.3123zm24.605 2.9165c2.0088 0 3.741-.35718 5.1965-1.0715 1.4556-.71436 2.5754-1.7375 3.3596-3.0696.78418-1.332 1.1763-2.9272 1.1763-4.7856v-14.099h-3.6255v13.874c0 2.0303-.52905 3.5798-1.5872 4.6487-1.0581 1.0688-2.554 1.6033-4.4875 1.6033-1.8691 0-3.2979-.51294-4.2861-1.5388-.98828-1.0259-1.4824-2.5325-1.4824-4.5198v-14.067h-3.6416v14.373c0 1.8154.37866 3.3677 1.136 4.6567.75732 1.2891 1.8369 2.2773 3.2388 2.9648s3.0696 1.0312 5.0032 1.0312zm24.863 0c2.2988 0 4.2996-.51831 6.0022-1.5549s3.0105-2.5701 3.9236-4.6003l-3.0454-1.3696c-1.4395 3.0615-3.7007 4.5923-6.7837 4.5923-1.5791 0-2.938-.35986-4.0767-1.0796-1.1387-.71973-2.0115-1.7402-2.6184-3.0615-.60693-1.3213-.9104-2.8896-.9104-4.7051 0-2.7285.6499-4.8555 1.9497-6.3809s3.1475-2.2881 5.543-2.2881c1.5361 0 2.8655.34644 3.988 1.0393 1.1226.69287 1.9148 1.6677 2.3767 2.9246l3.3516-1.0312c-.74121-1.9229-1.9309-3.3784-3.5691-4.3667-1.6382-.98828-3.7087-1.4824-6.2117-1.4824-2.3418 0-4.3425.45654-6.0022 1.3696s-2.9272 2.2344-3.8027 3.9639c-.87549 1.7295-1.3132 3.8135-1.3132 6.252 0 2.4277.4458 4.5251 1.3374 6.2922s2.1726 3.1233 3.843 4.0686c1.6704.94531 3.6765 1.418 6.0183 1.418zm17.241-.32227v-10.264h11.489v10.264h3.6416v-22.704h-3.6416v9.4102h-11.489v-9.4102h-3.6255v22.704zm38.301 0v-2.9004h-14.47v-7.2671h12.826v-2.8843h-12.826v-6.7515h13.809v-2.9004h-17.435v22.704h18.095zm7.7666 0v-3.9961h-3.6416v3.9961z"/></svg>