<svg height="191" viewBox="0 0 389 191" width="389" xmlns="http://www.w3.org/2000/svg"><g fill="none" fill-rule="evenodd"><path d="m0 0h389v191h-389z" fill="#fff"/><path d="m88.2226562 107.041992v-14.679199c0-.6767578-.0134277-1.4206543-.0402832-2.2316895-.0268554-.8110351-.0563964-1.6945801-.088623-2.6506347l1.5307617 5.0273437 5.3173828 14.5341795h2.578125l5.2690425-14.5341795c.204102-.5478516.429688-1.2434082.676758-2.0866699.247071-.8432617.526368-1.8234864.837891-2.9406738-.053711.8916015-.093994 1.7617187-.12085 2.6103515-.026855.8486328-.040283 1.605957-.040283 2.2719727v14.679199h3.254883v-22.7036131h-4.737305l-5.3496091 14.9370117c-.0751953.2363282-.1826172.5800782-.3222657 1.0312504-.1396484.451171-.2766113.913086-.4108886 1.385742-.1342774.472656-.2443848.875488-.3303223 1.208496-.1074219-.451172-.2578125-1.039307-.4511719-1.764404-.1933593-.725098-.3920898-1.4152836-.5961914-2.070557l-5.3818359-14.7275391h-4.8178711v22.7036131zm25.7490238 0 2.416992-6.364746h9.780762l2.400878 6.364746h3.657715l-8.830078-22.7036131h-4.205566l-8.926758 22.7036131zm11.230957-9.1523436h-7.847168l2.723144-7.2670898c.171875-.4511719.373291-1.0231934.604248-1.7160645s.427002-1.3132324.588135-1.8610839c.214844.6982421.424316 1.35083.628418 1.9577636s.381348 1.1091309.531738 1.5065918zm25.249511 9.1523436v-2.90039h-11.714355v-19.8032231h-3.625488v22.7036131zm6.832032 0v-14.679199c0-.6767578-.013428-1.4206543-.040284-2.2316895-.026855-.8110351-.056396-1.6945801-.088623-2.6506347l1.530762 5.0273437 5.317383 14.5341795h2.578125l5.269043-14.5341795c.204102-.5478516.429687-1.2434082.676758-2.0866699.24707-.8432617.526367-1.8234864.83789-2.9406738-.053711.8916015-.093994 1.7617187-.120849 2.6103515-.026856.8486328-.040283 1.605957-.040283 2.2719727v14.679199h3.254882v-22.7036131h-4.737304l-5.34961 14.9370117c-.075195.2363282-.182617.5800782-.322265 1.0312504-.139649.451171-.276612.913086-.410889 1.385742s-.244385.875488-.330322 1.208496c-.107422-.451172-.257813-1.039307-.451172-1.764404-.19336-.725098-.39209-1.4152836-.596192-2.070557l-5.381835-14.7275391h-4.817872v22.7036131zm34.514648.322266c2.320313 0 4.329102-.480713 6.026367-1.442139 1.697266-.961426 3.010498-2.322998 3.939698-4.084717.929199-1.761718 1.393798-3.8457028 1.393798-6.2519528 0-2.4384765-.453857-4.5197754-1.361572-6.2438965s-2.207519-3.0454101-3.899414-3.9638672c-1.691894-.918457-3.714111-1.3776855-6.06665-1.3776855-2.374024 0-4.406983.4619141-6.098877 1.3857422-1.691895.9238281-2.986328 2.2478027-3.883301 3.9719238s-1.345459 3.8000488-1.345459 6.2277832c0 2.4384766.453857 4.5385738 1.361572 6.3002928s2.20752 3.115235 3.899414 4.060547c1.691895.945313 3.703369 1.417969 6.034424 1.417969zm0-2.916504c-1.579101 0-2.940674-.359863-4.084717-1.07959-1.144043-.719726-2.019531-1.74292-2.626465-3.06958-.606933-1.3266602-.9104-2.8977051-.9104-4.7131348 0-2.7392578.666016-4.8688965 1.998047-6.388916s3.217285-2.2800293 5.655762-2.2800293c2.416992 0 4.291504.770752 5.623535 2.3122559s1.998047 3.6604004 1.998047 6.3566894c0 2.8251953-.660645 5.0085448-1.981934 6.5500488s-3.211914 2.312256-5.671875 2.312256zm24.604981 2.916504c2.008789 0 3.740966-.357178 5.196533-1.071533 1.455566-.714356 2.575439-1.737549 3.359619-3.06958.78418-1.332032 1.176269-2.927247 1.176269-4.785645v-14.0991211h-3.625488v13.8735352c0 2.0302739-.529053 3.5798339-1.587158 4.6486819-1.058105 1.068847-2.553955 1.603271-4.487549 1.603271-1.86914 0-3.297851-.512939-4.286133-1.538818-.988281-1.025879-1.482422-2.532471-1.482422-4.5197756v-14.0668945h-3.641601v14.3730469c0 1.8154292.378662 3.3676762 1.135986 4.6567382.757324 1.289063 1.836914 2.277344 3.23877 2.964844 1.401855.6875 3.06958 1.03125 5.003174 1.03125zm24.862793 0c2.298828 0 4.29956-.518311 6.002197-1.554932s3.010498-2.570068 3.923584-4.600342l-3.04541-1.3696285c-1.439453 3.0615235-3.700684 4.5922855-6.783692 4.5922855-1.579101 0-2.937988-.359864-4.07666-1.07959-1.138672-.719727-2.011475-1.740235-2.618408-3.061524-.606934-1.3212887-.910401-2.8896481-.910401-4.7050778 0-2.7285156.649903-4.8554687 1.949708-6.3808594 1.299804-1.5253906 3.14746-2.2880859 5.542968-2.2880859 1.536133 0 2.865479.3464356 3.988037 1.0393066 1.122559.6928711 1.914795 1.6677247 2.376709 2.9245606l3.351563-1.03125c-.741211-1.9228516-1.930908-3.378418-3.569092-4.3666992-1.638184-.9882813-3.70874-1.4824219-6.21167-1.4824219-2.341797 0-4.342529.456543-6.002197 1.3696289s-2.927246 2.234375-3.802734 3.9638672c-.875489 1.7294922-1.313233 3.8134766-1.313233 6.2519531 0 2.4277344.445801 4.5251468 1.337402 6.2922368.891602 1.767089 2.172608 3.123291 3.843018 4.068603 1.67041.945313 3.676514 1.417969 6.018311 1.417969zm17.24121-.322266v-10.26416h11.48877v10.26416h3.641602v-22.7036131h-3.641602v9.4101563h-11.48877v-9.4101563h-3.625488v22.7036131zm38.30127 0v-2.90039h-14.469727v-7.2670903h12.826172v-2.8842773h-12.826172v-6.7514649h13.809083v-2.9003906h-17.434571v22.7036131zm7.766602 0v-3.996094h-3.641602v3.996094z" fill="#000" fill-rule="nonzero"/></g></svg>